<svg xmlns="http://www.w3.org/2000/svg" viewBox="0 0 64 64">
  <defs>
    <linearGradient id="g" x1="0%" y1="0%" x2="100%" y2="100%">
      <stop offset="0%" stop-color="#38bdf8"/>
      <stop offset="60%" stop-color="#6366f1"/>
      <stop offset="100%" stop-color="#ec4899"/>
    </linearGradient>
  </defs>
  <rect rx="14" ry="14" x="4" y="4" width="56" height="56" fill="url(#g)"/>
  <path fill="#fff" fill-opacity="0.95" d="M35.8 16.5c-2.4-2.4-6.2-2.4-8.6 0l-8.7 8.7c-2.4 2.4-2.4 6.2 0 8.6 1 1 2.2 1.6 3.5 1.9l3.2-3.2c-.9.2-1.9-.1-2.6-.8-1.2-1.2-1.2-3.1 0-4.3l8.7-8.7c1.2-1.2 3.1-1.2 4.3 0 1.2 1.2 1.2 3.1 0 4.3l-3.6 3.6c1.5-.2 3 .3 4.2 1.5l3.7-3.7c2.4-2.4 2.4-6.2 0-8.6Zm-7.6 15.1c-1.2 1.2-1.2 3.1 0 4.3 1.2 1.2 3.1 1.2 4.3 0l3.6-3.6c.9-.2 1.9.1 2.6.8 1.2 1.2 1.2 3.1 0 4.3l-8.7 8.7c-1.2 1.2-3.1 1.2-4.3 0-1.2-1.2-1.2-3.1 0-4.3l3.6-3.6c-1.5.2-3-.3-4.2-1.5l-3.7 3.7c-2.4 2.4-2.4 6.2 0 8.6 2.4 2.4 6.2 2.4 8.6 0l8.7-8.7c2.4-2.4 2.4-6.2 0-8.6-1-1-2.2-1.6-3.5-1.9l-3.2 3.2c.9-.2 1.9.1 2.6.8 1.2 1.2 1.2 3.1 0 4.3l-8.7 8.7c-1.2 1.2-3.1 1.2-4.3 0-1.2-1.2-1.2-3.1 0-4.3l3.7-3.7c-2.4-2.4-2.4-6.2 0-8.6 1-1 2.2-1.6 3.5-1.9Z"/>
  <text x="50%" y="54" font-family="Inter,Arial,sans-serif" font-size="10" text-anchor="middle" fill="#fff" fill-opacity="0.9" font-weight="600">LS</text>
</svg>
